# xmcd CD database file
#
# Track frame offsets:
#	150
#	18013
#	44285
#	64930
#	89965
#	108703
#	122909
#	140021
#	167999
#	189611
#	213273
#	232178
#	248021
#	262943
#	281025
#	292712
#	311478
#	331055
#
# Disc length: 4655 seconds
#
# Revision: 1
# Processed by: cddbd v1.5.2PL0 Copyright (c) Steve Scherf et al.
# Submitted via: CDex 1.50
#
DISCID=10122d12
DTITLE=Verschiedene - Best of Nachtcafé CD01
DYEAR=2015
DGENRE=Jazz
TTITLE0=Feeling good (Michael Bublé)
TTITLE1=Purple rain (Randy Crawford)
TTITLE2=Kissing a fool (George Michael)
TTITLE3=Me and Mrs. Jones (Tower of Power)
TTITLE4=Sunny (Christoph Spendel - Lisa Shaw)
TTITLE5=Why? (Lisa Stansfield)
TTITLE6=Fever (Rigmor Gustafsson)
TTITLE7=Let's stay together (Jeff Cascaro)
TTITLE8=Just the way you are (Barry White)
TTITLE9=The look of love (Kenny G)
TTITLE10=Summertime (Renee Olstead)
TTITLE11=Fallin' (Alicia Keys)
TTITLE12=Happy (Till Brönner)
TTITLE13=When love comes to town (Torsten Goods)
TTITLE14=Love is a losing game (Amy Winehouse)
TTITLE15=You are so beautiful (Max Mutzke)
TTITLE16=Lily was here (David A. Stewart - Candy Dulfer)
TTITLE17=Rolling in the deep (Aretha Franklin)
EXTD=YEAR: 2015
EXTT0=
EXTT1=
EXTT2=
EXTT3=
EXTT4=
EXTT5=
EXTT6=
EXTT7=
EXTT8=
EXTT9=
EXTT10=
EXTT11=
EXTT12=
EXTT13=
EXTT14=
EXTT15=
EXTT16=
EXTT17=
PLAYORDER=
